# xmcd
#
# Track frame offsets:
#	150
#	18780
#	39007
#	68260
#	101133
#	125855
#	141685
#	169701
#	195354
#	222910
#	253921
#	282725
#	306077
#
# Disc length: 4451 seconds
# Revision: 0
# Processed by: cddbd v1.5.2PL0 Copyright (c) Steve Scherf et al.
# Submitted via: dBpowerAMP V12.0
#
DISCID=bf11610d
DTITLE=Lyndsay Faye - Der Teufel von New York 5
DYEAR=2013
DGENRE=Other
TTITLE0=52
TTITLE1=53
TTITLE2=54
TTITLE3=55
TTITLE4=56
TTITLE5=57
TTITLE6=58
TTITLE7=59
TTITLE8=60
TTITLE9=61
TTITLE10=62
TTITLE11=63
TTITLE12=64
EXTD=
EXTT0=
EXTT1=
EXTT2=
EXTT3=
EXTT4=
EXTT5=
EXTT6=
EXTT7=
EXTT8=
EXTT9=
EXTT10=
EXTT11=
EXTT12=
PLAYORDER=
